HIERARCHY
ROOT Hips
{
	OFFSET 56.877701 -32.693596 43.373703
	CHANNELS 6 Xposition Yposition Zposition Zrotation Xrotation Yrotation
	JOINT Chest
	{
		OFFSET -0.779999 1.005800 5.403099
		CHANNELS 6 Xposition Yposition Zposition Zrotation Xrotation Yrotation
		JOINT Chest2
		{
			OFFSET 0.000000 0.000000 4.236801
			CHANNELS 6 Xposition Yposition Zposition Zrotation Xrotation Yrotation
			JOINT Neck
			{
				OFFSET 0.000000 0.000000 9.874401
				CHANNELS 6 Xposition Yposition Zposition Zrotation Xrotation Yrotation
				JOINT Head
				{
					OFFSET 0.000000 0.000002 2.173893
					CHANNELS 6 Xposition Yposition Zposition Zrotation Xrotation Yrotation
					End Site
					{
						OFFSET 0.000000 0.000000 6.508102
					}
				}
			}
			JOINT LeftCollar
			{
				OFFSET 2.681599 -0.377600 5.432499
				CHANNELS 6 Xposition Yposition Zposition Zrotation Xrotation Yrotation
				JOINT LeftShoulder
				{
					OFFSET 5.161499 0.000000 0.000000
					CHANNELS 6 Xposition Yposition Zposition Zrotation Xrotation Yrotation
					JOINT LeftElbow
					{
						OFFSET 0.000000 0.000000 -10.869099
						CHANNELS 6 Xposition Yposition Zposition Zrotation Xrotation Yrotation
						JOINT LeftWrist
						{
							OFFSET 0.000000 0.000000 -13.344799
							CHANNELS 6 Xposition Yposition Zposition Zrotation Xrotation Yrotation
							End Site
							{
								OFFSET 0.000000 0.000000 -2.173901
							}
						}
					}
				}
			}
			JOINT RightCollar
			{
				OFFSET -2.381901 -1.419600 6.136600
				CHANNELS 6 Xposition Yposition Zposition Zrotation Xrotation Yrotation
				JOINT RightShoulder
				{
					OFFSET -4.550499 0.000000 0.000000
					CHANNELS 6 Xposition Yposition Zposition Zrotation Xrotation Yrotation
					JOINT RightElbow
					{
						OFFSET 0.000000 0.000000 -11.106499
						CHANNELS 6 Xposition Yposition Zposition Zrotation Xrotation Yrotation
						JOINT RightWrist
						{
							OFFSET 0.000000 0.000000 -12.874298
							CHANNELS 6 Xposition Yposition Zposition Zrotation Xrotation Yrotation
							End Site
							{
								OFFSET 0.000000 0.000000 -2.173901
							}
						}
					}
				}
			}
		}
	}
	JOINT LeftHip
	{
		OFFSET 2.431900 0.469601 -2.489399
		CHANNELS 6 Xposition Yposition Zposition Zrotation Xrotation Yrotation
		JOINT LeftKnee
		{
			OFFSET 0.000000 -0.000004 -18.200201
			CHANNELS 6 Xposition Yposition Zposition Zrotation Xrotation Yrotation
			JOINT LeftAnkle
			{
				OFFSET 0.000000 0.000000 -16.279900
				CHANNELS 6 Xposition Yposition Zposition Zrotation Xrotation Yrotation
				End Site
				{
					OFFSET 0.000000 -8.394100 0.000000
				}
			}
		}
	}
	JOINT RightHip
	{
		OFFSET -1.987999 -0.073502 -2.713001
		CHANNELS 6 Xposition Yposition Zposition Zrotation Xrotation Yrotation
		JOINT RightKnee
		{
			OFFSET 0.000000 -0.000004 -19.547802
			CHANNELS 6 Xposition Yposition Zposition Zrotation Xrotation Yrotation
			JOINT RightAnkle
			{
				OFFSET 0.000000 0.000000 -14.881199
				CHANNELS 6 Xposition Yposition Zposition Zrotation Xrotation Yrotation
				End Site
				{
					OFFSET 0.000000 -7.922699 0.000000
				}
			}
		}
	}
}
MOTION
Frames: 4
Frame Time: 0.041667
58.662495 -57.442097 5.352512 4700.196098 45.832970 -100.260299 -0.780001 1.005800 5.403091 12.824810 -41.558587 29.324840 0.000010 0.000001 4.236797 5.062332 0.148397 0.018282 0.000009 0.000002 9.874407 -3.346007 -49.102056 41.318878 0.000000 -0.000000 2.173891 -2.255448 -5.051568 -8.214232 2.681602 -0.377598 5.432504 -12.461912 7.005363 -13.216120 5.161504 0.000009 -0.000002 -208.056728 -114.489530 -342.542784 0.000000 0.000003 -10.869097 63.110244 -8.171591 12.403348 -0.000004 0.000004 -13.344792 -12.569011 -5.576875 -63.720904 -2.381910 -1.419600 6.136600 13.325891 22.732020 35.490657 -4.550500 -0.000008 0.000008 -1206.261022 -470.861111 -451.687513 -0.000002 0.000001 -11.106497 570.249325 -38.971803 570.142555 0.000004 -0.000002 -12.874297 -363.779591 -6.677970 63.348960 2.431900 0.469599 -2.489407 -117.735249 43.003810 48.699450 0.000000 -0.000001 -18.200205 6.368193 2.953640 57.869795 -0.000008 -0.000004 -16.279898 36.331952 47.450984 97.086214 -1.987994 -0.073504 -2.713004 -17.686348 -19.045882 -7.168508 -0.000010 -0.000003 -19.547798 -1822.259281 134.547077 0.887572 -0.000000 0.000000 -14.881195 1851.674338 67.745224 -41.641905
58.665199 -57.446594 5.354198 4700.162876 45.892239 -100.226913 -0.780002 1.005809 5.403101 12.875787 -41.503689 29.318976 0.000005 -0.000001 4.236799 5.186517 0.176379 -0.107784 -0.000001 -0.000002 9.874407 -3.313326 -49.123134 41.544264 -0.000003 -0.000001 2.173890 -2.271379 -5.054353 -8.214772 2.681602 -0.377607 5.432502 -12.627754 6.959675 -13.034027 5.161497 0.000005 0.000002 -208.390465 -114.551575 -342.855170 0.000011 0.000000 -10.869098 63.095054 -8.144689 12.344508 0.000006 0.000004 -13.344802 -12.602983 -5.615672 -63.689984 -2.381897 -1.419602 6.136600 13.171323 22.763834 35.621701 -4.550511 -0.000003 0.000004 -1206.378064 -471.274583 -451.734887 -0.000001 -0.000006 -11.106483 569.816072 -38.952504 570.157964 0.000005 0.000002 -12.874295 -363.683449 -6.683288 63.390644 2.431890 0.469604 -2.489391 -117.840571 42.913215 48.771878 -0.000008 -0.000010 -18.200201 6.422330 2.741994 57.910701 0.000009 0.000001 -16.279894 36.371621 47.514129 97.037461 -1.988001 -0.073498 -2.712993 -17.761581 -19.019230 -7.197491 -0.000002 -0.000004 -19.547800 -1821.771223 134.455498 0.550024 -0.000000 0.000010 -14.881200 1852.114967 67.939762 -41.807779
58.668495 -57.451195 5.356709 4700.146702 45.958950 -100.207065 -0.779993 1.005795 5.403093 12.934221 -41.451318 29.319304 -0.000003 -0.000006 4.236803 5.179700 0.168685 -0.107466 0.000016 0.000004 9.874399 -3.290147 -49.105485 41.562866 0.000002 0.000011 2.173894 -2.292660 -5.057858 -8.198396 2.681602 -0.377599 5.432497 -12.636598 6.965144 -12.960777 5.161506 0.000012 -0.000006 -208.787395 -114.628988 -343.216623 0.000006 0.000004 -10.869096 62.997055 -8.134192 12.257993 -0.000007 0.000005 -13.344807 -12.575407 -5.668158 -63.623929 -2.381896 -1.419598 6.136589 13.198436 22.789363 35.594800 -4.550496 -0.000008 0.000001 -1206.411286 -472.596853 -451.767262 -0.000001 -0.000006 -11.106485 568.435226 -38.948505 570.102066 -0.000002 -0.000005 -12.874297 -363.614300 -6.673130 63.379490 2.431899 0.469594 -2.489391 -117.933735 42.809782 48.846911 -0.000001 -0.000005 -18.200201 6.464030 2.552341 57.947919 -0.000003 -0.000003 -16.279898 36.376945 47.449871 97.091433 -1.988002 -0.073502 -2.712993 -17.877899 -19.010209 -7.246796 -0.000008 -0.000001 -19.547798 -1821.360538 134.408438 0.341894 0.000001 0.000000 -14.881199 1852.485000 68.041655 -42.037485
58.672295 -57.455189 5.358910 4700.126157 46.018208 -100.179996 -0.780001 1.005793 5.403091 12.971566 -41.395611 29.315667 0.000000 -0.000002 4.236799 5.178988 0.155202 -0.111164 -0.000009 -0.000008 9.874405 -3.267478 -49.081849 41.560851 0.000007 0.000002 2.173894 -2.318802 -5.062651 -8.169757 2.681597 -0.377611 5.432505 -12.639688 6.967141 -12.886808 5.161507 0.000010 -0.000004 -209.235523 -114.721223 -343.619413 0.000004 -0.000007 -10.869102 62.840643 -8.128221 12.140334 -0.000008 0.000010 -13.344803 -12.490964 -5.729229 -63.511600 -2.381910 -1.419603 6.136599 13.217649 22.810672 35.541931 -4.550509 -0.000004 0.000002 -1206.448989 -473.029450 -451.721118 -0.000001 -0.000008 -11.106491 568.027000 -38.915225 570.127255 -0.000006 -0.000001 -12.874302 -363.555834 -6.658350 63.372496 2.431897 0.469593 -2.489405 -117.938516 42.752142 48.869638 -0.000009 -0.000005 -18.200203 6.486396 2.383726 57.945733 0.000002 0.000007 -16.279894 36.403774 47.475074 97.090518 -1.987996 -0.073503 -2.712997 -17.996186 -19.001684 -7.303737 0.000003 -0.000003 -19.547798 -1821.106564 134.402796 0.290340 0.000005 0.000006 -14.881201 1852.742689 68.060383 -42.299928
